<svg id="visual" viewBox="0 0 900 600" width="900" height="600" xmlns="http://www.w3.org/2000/svg" xmlns:xlink="http://www.w3.org/1999/xlink" version="1.1"><rect x="0" y="0" width="900" height="600" fill="#e9e5d6"></rect><path d="M338 0L345 14.3C352 28.7 366 57.3 364 85.8C362 114.3 344 142.7 335.5 171.2C327 199.7 328 228.3 343.7 257C359.3 285.7 389.7 314.3 387 343C384.3 371.7 348.7 400.3 343.5 428.8C338.3 457.3 363.7 485.7 371 514.2C378.3 542.7 367.7 571.3 362.3 585.7L357 600L0 600L0 585.7C0 571.3 0 542.7 0 514.2C0 485.7 0 457.3 0 428.8C0 400.3 0 371.7 0 343C0 314.3 0 285.7 0 257C0 228.3 0 199.7 0 171.2C0 142.7 0 114.3 0 85.8C0 57.3 0 28.7 0 14.3L0 0Z" fill="#acb992"></path><path d="M363 0L355.2 14.3C347.3 28.7 331.7 57.3 331.5 85.8C331.3 114.3 346.7 142.7 344 171.2C341.3 199.7 320.7 228.3 313.2 257C305.7 285.7 311.3 314.3 324.7 343C338 371.7 359 400.3 355.5 428.8C352 457.3 324 485.7 323.2 514.2C322.3 542.7 348.7 571.3 361.8 585.7L375 600L0 600L0 585.7C0 571.3 0 542.7 0 514.2C0 485.7 0 457.3 0 428.8C0 400.3 0 371.7 0 343C0 314.3 0 285.7 0 257C0 228.3 0 199.7 0 171.2C0 142.7 0 114.3 0 85.8C0 57.3 0 28.7 0 14.3L0 0Z" fill="#9aa680"></path><path d="M241 0L247.5 14.3C254 28.7 267 57.3 264.8 85.8C262.7 114.3 245.3 142.7 252.5 171.2C259.7 199.7 291.3 228.3 307 257C322.7 285.7 322.3 314.3 309.3 343C296.3 371.7 270.7 400.3 254.3 428.8C238 457.3 231 485.7 233.5 514.2C236 542.7 248 571.3 254 585.7L260 600L0 600L0 585.7C0 571.3 0 542.7 0 514.2C0 485.7 0 457.3 0 428.8C0 400.3 0 371.7 0 343C0 314.3 0 285.7 0 257C0 228.3 0 199.7 0 171.2C0 142.7 0 114.3 0 85.8C0 57.3 0 28.7 0 14.3L0 0Z" fill="#88936f"></path><path d="M265 0L259 14.3C253 28.7 241 57.3 229 85.8C217 114.3 205 142.7 209.5 171.2C214 199.7 235 228.3 246.5 257C258 285.7 260 314.3 256.8 343C253.7 371.7 245.3 400.3 238 428.8C230.7 457.3 224.3 485.7 224 514.2C223.7 542.7 229.3 571.3 232.2 585.7L235 600L0 600L0 585.7C0 571.3 0 542.7 0 514.2C0 485.7 0 457.3 0 428.8C0 400.3 0 371.7 0 343C0 314.3 0 285.7 0 257C0 228.3 0 199.7 0 171.2C0 142.7 0 114.3 0 85.8C0 57.3 0 28.7 0 14.3L0 0Z" fill="#77815e"></path><path d="M152 0L156.3 14.3C160.7 28.7 169.3 57.3 178.8 85.8C188.3 114.3 198.7 142.7 194 171.2C189.3 199.7 169.7 228.3 161.8 257C154 285.7 158 314.3 157.8 343C157.7 371.7 153.3 400.3 158.7 428.8C164 457.3 179 485.7 188 514.2C197 542.7 200 571.3 201.5 585.7L203 600L0 600L0 585.7C0 571.3 0 542.7 0 514.2C0 485.7 0 457.3 0 428.8C0 400.3 0 371.7 0 343C0 314.3 0 285.7 0 257C0 228.3 0 199.7 0 171.2C0 142.7 0 114.3 0 85.8C0 57.3 0 28.7 0 14.3L0 0Z" fill="#66704d"></path><path d="M100 0L108.5 14.3C117 28.7 134 57.3 133 85.8C132 114.3 113 142.7 103.3 171.2C93.7 199.7 93.3 228.3 94.7 257C96 285.7 99 314.3 107.5 343C116 371.7 130 400.3 132.3 428.8C134.7 457.3 125.3 485.7 117.5 514.2C109.7 542.7 103.3 571.3 100.2 585.7L97 600L0 600L0 585.7C0 571.3 0 542.7 0 514.2C0 485.7 0 457.3 0 428.8C0 400.3 0 371.7 0 343C0 314.3 0 285.7 0 257C0 228.3 0 199.7 0 171.2C0 142.7 0 114.3 0 85.8C0 57.3 0 28.7 0 14.3L0 0Z" fill="#565e3d"></path><path d="M68 0L65.3 14.3C62.7 28.7 57.3 57.3 56.8 85.8C56.3 114.3 60.7 142.7 60.5 171.2C60.3 199.7 55.7 228.3 59 257C62.3 285.7 73.7 314.3 78.2 343C82.7 371.7 80.3 400.3 74.7 428.8C69 457.3 60 485.7 59.8 514.2C59.7 542.7 68.3 571.3 72.7 585.7L77 600L0 600L0 585.7C0 571.3 0 542.7 0 514.2C0 485.7 0 457.3 0 428.8C0 400.3 0 371.7 0 343C0 314.3 0 285.7 0 257C0 228.3 0 199.7 0 171.2C0 142.7 0 114.3 0 85.8C0 57.3 0 28.7 0 14.3L0 0Z" fill="#464e2e"></path></svg>