<svg id="visual" viewBox="0 0 350 550" width="350" height="550" xmlns="http://www.w3.org/2000/svg" xmlns:xlink="http://www.w3.org/1999/xlink" version="1.1"><rect x="0" y="0" width="350" height="550" fill="#e9e5d6"></rect><path d="M0 412L8.3 409.2C16.7 406.3 33.3 400.7 50 401.5C66.7 402.3 83.3 409.7 100 413C116.7 416.3 133.3 415.7 150 409.2C166.7 402.7 183.3 390.3 200 391.5C216.7 392.7 233.3 407.3 250 409.5C266.7 411.7 283.3 401.3 300 398.3C316.7 395.3 333.3 399.7 341.7 401.8L350 404L350 551L341.7 551C333.3 551 316.7 551 300 551C283.3 551 266.7 551 250 551C233.3 551 216.7 551 200 551C183.3 551 166.7 551 150 551C133.3 551 116.7 551 100 551C83.3 551 66.7 551 50 551C33.3 551 16.7 551 8.3 551L0 551Z" fill="#acb992"></path><path d="M0 402L8.3 405.2C16.7 408.3 33.3 414.7 50 414.7C66.7 414.7 83.3 408.3 100 409.3C116.7 410.3 133.3 418.7 150 421.7C166.7 424.7 183.3 422.3 200 417C216.7 411.7 233.3 403.3 250 404.8C266.7 406.3 283.3 417.7 300 418C316.7 418.3 333.3 407.7 341.7 402.3L350 397L350 551L341.7 551C333.3 551 316.7 551 300 551C283.3 551 266.7 551 250 551C233.3 551 216.7 551 200 551C183.3 551 166.7 551 150 551C133.3 551 116.7 551 100 551C83.3 551 66.7 551 50 551C33.3 551 16.7 551 8.3 551L0 551Z" fill="#9aa680"></path><path d="M0 451L8.3 448.3C16.7 445.7 33.3 440.3 50 441.3C66.7 442.3 83.3 449.7 100 446.8C116.7 444 133.3 431 150 424.5C166.7 418 183.3 418 200 423.3C216.7 428.7 233.3 439.3 250 446C266.7 452.7 283.3 455.3 300 454.3C316.7 453.3 333.3 448.7 341.7 446.3L350 444L350 551L341.7 551C333.3 551 316.7 551 300 551C283.3 551 266.7 551 250 551C233.3 551 216.7 551 200 551C183.3 551 166.7 551 150 551C133.3 551 116.7 551 100 551C83.3 551 66.7 551 50 551C33.3 551 16.7 551 8.3 551L0 551Z" fill="#88936f"></path><path d="M0 441L8.3 443.5C16.7 446 33.3 451 50 456C66.7 461 83.3 466 100 464.2C116.7 462.3 133.3 453.7 150 449C166.7 444.3 183.3 443.7 200 445C216.7 446.3 233.3 449.7 250 452.7C266.7 455.7 283.3 458.3 300 458.5C316.7 458.7 333.3 456.3 341.7 455.2L350 454L350 551L341.7 551C333.3 551 316.7 551 300 551C283.3 551 266.7 551 250 551C233.3 551 216.7 551 200 551C183.3 551 166.7 551 150 551C133.3 551 116.7 551 100 551C83.3 551 66.7 551 50 551C33.3 551 16.7 551 8.3 551L0 551Z" fill="#77815e"></path><path d="M0 488L8.3 486.2C16.7 484.3 33.3 480.7 50 476.7C66.7 472.7 83.3 468.3 100 470.2C116.7 472 133.3 480 150 483.3C166.7 486.7 183.3 485.3 200 485.5C216.7 485.7 233.3 487.3 250 485.2C266.7 483 283.3 477 300 473.3C316.7 469.7 333.3 468.3 341.7 467.7L350 467L350 551L341.7 551C333.3 551 316.7 551 300 551C283.3 551 266.7 551 250 551C233.3 551 216.7 551 200 551C183.3 551 166.7 551 150 551C133.3 551 116.7 551 100 551C83.3 551 66.7 551 50 551C33.3 551 16.7 551 8.3 551L0 551Z" fill="#66704d"></path><path d="M0 509L8.3 505.5C16.7 502 33.3 495 50 495.3C66.7 495.7 83.3 503.3 100 507.2C116.7 511 133.3 511 150 510.5C166.7 510 183.3 509 200 505.7C216.7 502.3 233.3 496.7 250 495.7C266.7 494.7 283.3 498.3 300 501.5C316.7 504.7 333.3 507.3 341.7 508.7L350 510L350 551L341.7 551C333.3 551 316.7 551 300 551C283.3 551 266.7 551 250 551C233.3 551 216.7 551 200 551C183.3 551 166.7 551 150 551C133.3 551 116.7 551 100 551C83.3 551 66.7 551 50 551C33.3 551 16.7 551 8.3 551L0 551Z" fill="#565e3d"></path><path d="M0 522L8.3 523C16.7 524 33.3 526 50 526.2C66.7 526.3 83.3 524.7 100 524.8C116.7 525 133.3 527 150 525.7C166.7 524.3 183.3 519.7 200 517.8C216.7 516 233.3 517 250 519.3C266.7 521.7 283.3 525.3 300 525.3C316.7 525.3 333.3 521.7 341.7 519.8L350 518L350 551L341.7 551C333.3 551 316.7 551 300 551C283.3 551 266.7 551 250 551C233.3 551 216.7 551 200 551C183.3 551 166.7 551 150 551C133.3 551 116.7 551 100 551C83.3 551 66.7 551 50 551C33.3 551 16.7 551 8.3 551L0 551Z" fill="#464e2e"></path></svg>