<svg id="visual" viewBox="0 0 900 600" width="900" height="600" xmlns="http://www.w3.org/2000/svg" xmlns:xlink="http://www.w3.org/1999/xlink" version="1.1"><rect x="0" y="0" width="900" height="600" fill="#e9e5d6"></rect><path d="M564 600L557 585.7C550 571.3 536 542.7 538 514.2C540 485.7 558 457.3 566.5 428.8C575 400.3 574 371.7 558.3 343C542.7 314.3 512.3 285.7 515 257C517.7 228.3 553.3 199.7 558.5 171.2C563.7 142.7 538.3 114.3 531 85.8C523.7 57.3 534.3 28.7 539.7 14.3L545 0L900 0L900 14.3C900 28.7 900 57.3 900 85.8C900 114.3 900 142.7 900 171.2C900 199.7 900 228.3 900 257C900 285.7 900 314.3 900 343C900 371.7 900 400.3 900 428.8C900 457.3 900 485.7 900 514.2C900 542.7 900 571.3 900 585.7L900 600Z" fill="#acb992"></path><path d="M539 600L546.8 585.7C554.7 571.3 570.3 542.7 570.5 514.2C570.7 485.7 555.3 457.3 558 428.8C560.7 400.3 581.3 371.7 588.8 343C596.3 314.3 590.7 285.7 577.3 257C564 228.3 543 199.7 546.5 171.2C550 142.7 578 114.3 578.8 85.8C579.7 57.3 553.3 28.7 540.2 14.3L527 0L900 0L900 14.3C900 28.7 900 57.3 900 85.8C900 114.3 900 142.7 900 171.2C900 199.7 900 228.3 900 257C900 285.7 900 314.3 900 343C900 371.7 900 400.3 900 428.8C900 457.3 900 485.7 900 514.2C900 542.7 900 571.3 900 585.7L900 600Z" fill="#9aa680"></path><path d="M661 600L654.5 585.7C648 571.3 635 542.7 637.2 514.2C639.3 485.7 656.7 457.3 649.5 428.8C642.3 400.3 610.7 371.7 595 343C579.3 314.3 579.7 285.7 592.7 257C605.7 228.3 631.3 199.7 647.7 171.2C664 142.7 671 114.3 668.5 85.8C666 57.3 654 28.7 648 14.3L642 0L900 0L900 14.3C900 28.7 900 57.3 900 85.8C900 114.3 900 142.7 900 171.2C900 199.7 900 228.3 900 257C900 285.7 900 314.3 900 343C900 371.7 900 400.3 900 428.8C900 457.3 900 485.7 900 514.2C900 542.7 900 571.3 900 585.7L900 600Z" fill="#88936f"></path><path d="M637 600L643 585.7C649 571.3 661 542.7 673 514.2C685 485.7 697 457.3 692.5 428.8C688 400.3 667 371.7 655.5 343C644 314.3 642 285.7 645.2 257C648.3 228.3 656.7 199.7 664 171.2C671.3 142.7 677.7 114.3 678 85.8C678.3 57.3 672.7 28.7 669.8 14.3L667 0L900 0L900 14.3C900 28.7 900 57.3 900 85.8C900 114.3 900 142.7 900 171.2C900 199.7 900 228.3 900 257C900 285.7 900 314.3 900 343C900 371.7 900 400.3 900 428.8C900 457.3 900 485.7 900 514.2C900 542.7 900 571.3 900 585.7L900 600Z" fill="#77815e"></path><path d="M750 600L745.7 585.7C741.3 571.3 732.7 542.7 723.2 514.2C713.7 485.7 703.3 457.3 708 428.8C712.7 400.3 732.3 371.7 740.2 343C748 314.3 744 285.7 744.2 257C744.3 228.3 748.7 199.7 743.3 171.2C738 142.7 723 114.3 714 85.8C705 57.3 702 28.7 700.5 14.3L699 0L900 0L900 14.3C900 28.7 900 57.3 900 85.8C900 114.3 900 142.7 900 171.2C900 199.7 900 228.3 900 257C900 285.7 900 314.3 900 343C900 371.7 900 400.3 900 428.8C900 457.3 900 485.7 900 514.2C900 542.7 900 571.3 900 585.7L900 600Z" fill="#66704d"></path><path d="M802 600L793.5 585.7C785 571.3 768 542.7 769 514.2C770 485.7 789 457.3 798.7 428.8C808.3 400.3 808.7 371.7 807.3 343C806 314.3 803 285.7 794.5 257C786 228.3 772 199.7 769.7 171.2C767.3 142.7 776.7 114.3 784.5 85.8C792.3 57.3 798.7 28.7 801.8 14.3L805 0L900 0L900 14.3C900 28.7 900 57.3 900 85.8C900 114.3 900 142.7 900 171.2C900 199.7 900 228.3 900 257C900 285.7 900 314.3 900 343C900 371.7 900 400.3 900 428.8C900 457.3 900 485.7 900 514.2C900 542.7 900 571.3 900 585.7L900 600Z" fill="#565e3d"></path><path d="M834 600L836.7 585.7C839.3 571.3 844.7 542.7 845.2 514.2C845.7 485.7 841.3 457.3 841.5 428.8C841.7 400.3 846.3 371.7 843 343C839.7 314.3 828.3 285.7 823.8 257C819.3 228.3 821.7 199.7 827.3 171.2C833 142.7 842 114.3 842.2 85.8C842.3 57.3 833.7 28.7 829.3 14.3L825 0L900 0L900 14.3C900 28.7 900 57.3 900 85.8C900 114.3 900 142.7 900 171.2C900 199.7 900 228.3 900 257C900 285.7 900 314.3 900 343C900 371.7 900 400.3 900 428.8C900 457.3 900 485.7 900 514.2C900 542.7 900 571.3 900 585.7L900 600Z" fill="#464e2e"></path></svg>